+15_ID_stride2.mot
nRows=6
nColumns=38

name +15_ID_stride2.mot
datacolumns 38
datarows 6
range 0.1500000000 0.1750000000
endheader
time	pelvis_tilt_moment	pelvis_list_moment	pelvis_rotation_moment	pelvis_tx_force	pelvis_ty_force	pelvis_tz_force	hip_flexion_r_moment	hip_adduction_r_moment	hip_rotation_r_moment	knee_angle_r_moment	ankle_angle_r_moment	subtalar_angle_r_moment	mtp_angle_r_moment	hip_flexion_l_moment	hip_adduction_l_moment	hip_rotation_l_moment	knee_angle_l_moment	ankle_angle_l_moment	subtalar_angle_l_moment	mtp_angle_l_moment	lumbar_extension_moment	lumbar_bending_moment	lumbar_rotation_moment	arm_flex_r_moment	arm_add_r_moment	arm_rot_r_moment	elbow_flex_r_moment	pro_sup_r_moment	wrist_flex_r_moment	wrist_dev_r_moment	arm_flex_l_moment	arm_add_l_moment	arm_rot_l_moment	elbow_flex_l_moment	pro_sup_l_moment	wrist_flex_l_moment	wrist_dev_l_moment
        0.1500000000	       -6.0892983791	       13.3490789983	       27.9946771462	      -18.6218343067	      478.7547380152	      199.4268746991	       80.0703098350	      -23.7162119298	        5.7972670934	       30.7675992891	        4.4434701357	       -0.9527887142	        0.1903536607	      -81.6888986023	       -6.9704143501	       -5.0403632714	      -31.9304259389	        6.7759982921	       -1.4738653234	        0.2141501939	       54.0328481257	       23.0028191840	       -2.2123298607	       -1.9208581405	        1.0669380906	        0.6119159391	        2.4131807695	       -0.0394140760	        0.1015841817	       -0.2050583102	       -1.2380449257	        0.4460119074	        0.4528348196	        2.6907690958	       -0.0329557328	        0.1126822237	       -0.2229193599	
        0.1550000000	      -36.8729645021	       62.4255901946	       32.2837919329	      -30.1267058092	      483.4624532460	      146.5105891661	       76.1314147640	      -20.7567127234	        5.8791637194	       30.7133564396	        4.5725624821	       -0.9115448346	        0.2127722169	      -38.2049524172	      -39.2110424779	       -1.0475416813	        0.4862130898	        7.9007008980	       -0.6283211122	        0.2563210024	       56.2535520127	       28.5246634450	       -0.0050822940	       -2.3808265614	        1.0536026223	        0.7590483503	        2.6654804963	       -0.0391576982	        0.1251875437	       -0.2127948833	       -2.2081004175	        0.6482979778	        0.5049051817	        2.9328196682	       -0.0376945033	        0.1154810290	       -0.2346291940	
        0.1600000000	      -67.6862970359	       91.6486918696	       34.6220346961	      -44.4192170428	      405.0856225272	       60.3479148625	       75.8193832734	      -16.3042511111	        5.3969851742	       31.1034793180	        4.7080154528	       -0.8586882328	        0.2318911500	      -17.7965553503	      -71.5818844646	        4.1991840923	       20.2650712603	        0.8872621365	        2.0825821763	        0.2842239986	       53.7123344705	       33.6607537427	        0.9366797845	       -2.4894239120	        0.6974950838	        0.6798920306	        2.8499722926	       -0.0458842324	        0.1268412906	       -0.2229687568	       -2.5376711942	        1.1114354253	        0.6964215830	        3.1227384321	       -0.0384230667	        0.1313601593	       -0.2416800399	
        0.1650000000	      -87.7945621200	       90.4198353995	       36.9055262588	      -57.8662760605	      260.7831713748	      -39.5415679647	       78.9350482763	      -11.0295032796	        4.4865340611	       31.8563383847	        4.8249384495	       -0.7893358911	        0.2459936340	      -26.3605604938	      -98.3829544362	        3.9271703606	       26.7317167109	      -13.8275865915	        4.3283534710	        0.2847125989	       46.4114172686	       37.2508636305	        0.5810330877	       -2.2354882610	        0.2419875602	        0.4277912723	        2.9191632085	       -0.0551370972	        0.1072504605	       -0.2300273485	       -2.2148001744	        1.6361204672	        0.9198750269	        3.2126844349	       -0.0353847835	        0.1495036312	       -0.2398973419	
        0.1700000000	      -91.5126961532	       80.0097792421	       39.9821250739	      -64.7706401603	       86.8645138391	     -106.0974142237	       82.8342587532	       -5.2456975450	        3.2391744757	       32.6530236828	        4.8552415367	       -0.7020194182	        0.2526786119	      -49.9302835760	     -105.8197351309	        1.3861462943	       26.3162054511	      -34.1717471899	        4.8052542032	        0.2795102166	       37.1205316248	       38.1659209090	       -0.1785896055	       -1.8682541664	       -0.1735409571	        0.1296880353	        2.9253429094	       -0.0638889634	        0.0784453353	       -0.2315957823	       -1.6888117626	        2.0727517259	        1.1203189743	        3.2274886200	       -0.0306865234	        0.1656610351	       -0.2346103053	
        0.1750000000	      -78.2893765845	       32.2522045294	       44.8192734130	      -66.2534222395	      -77.8385500442	     -128.0933509223	       84.6539766676	        0.8947040237	        1.7137341040	       33.1417448688	        4.8219031177	       -0.5917480544	        0.2541863704	      -99.6704676637	     -104.0316261387	      -12.0702566254	       15.8331575581	      -57.9321570459	        3.2550446431	        0.2431699641	       29.3926319815	       37.6713866213	       -1.3318550846	       -1.6068074791	       -0.4308653855	       -0.0928258123	        2.8974394702	       -0.0703407931	        0.0549067924	       -0.2306742152	       -1.1999294082	        2.3397729118	        1.2651721653	        3.2078781346	       -0.0268811041	        0.1779414978	       -0.2262550663	
